<svg width="80" height="80" viewBox="0 0 80 80" fill="none" xmlns="http://www.w3.org/2000/svg">
<rect width="80" height="80" rx="10" fill="#FAF8F6"/>
<path d="M53.1716 69.5041C54.019 69.5041 54.6546 69.3625 55.149 69.0791C55.5727 68.7957 55.9258 68.3707 56.067 67.8749C56.2083 67.379 56.2083 66.8123 56.067 66.1039C55.8552 65.4664 55.6433 64.8288 55.3608 64.0496L49.005 48.2527H25.206L18.8502 63.9787C18.5677 64.6871 18.3558 65.3955 18.144 66.0331C18.0027 66.7414 18.0027 67.3081 18.0733 67.804C18.144 68.2999 18.3558 68.7249 18.7795 69.0083C19.1326 69.3625 19.6976 69.5041 20.4744 69.5041V70H12V69.5041C13.1299 69.5041 14.048 68.8666 14.8248 67.6623C15.6016 66.4581 16.2372 65.1122 16.8022 63.6954L38.6238 10H40.0362L62.1404 64.0496C62.9878 65.9622 63.694 67.379 64.4002 68.229C65.0358 69.0791 66.0245 69.5041 67.3662 69.5041V70H53.2422V69.5041H53.1716ZM48.3694 46.4109L37.282 18.6423L25.9828 46.34H48.3694V46.4109Z" fill="black"/>
</svg>
