<svg width="143" height="40" viewBox="0 0 143 40" fill="none" xmlns="http://www.w3.org/2000/svg">
<path d="M27.857 39.3443C28.4174 39.3443 28.8376 39.2506 29.1645 39.0632C29.4446 38.8759 29.6781 38.5948 29.7715 38.267C29.8649 37.9391 29.8649 37.5644 29.7715 37.096C29.6314 36.6745 29.4913 36.2529 29.3045 35.7377L25.1021 25.2927H9.3661L5.16362 35.6909C4.97684 36.1592 4.83676 36.6276 4.69668 37.0492C4.60329 37.5176 4.60329 37.8923 4.64998 38.2201C4.69668 38.548 4.83676 38.829 5.11692 39.0164C5.3504 39.2506 5.72395 39.3443 6.23759 39.3443V39.6721H0.634277V39.3443C1.38139 39.3443 1.98841 38.9227 2.50205 38.1265C3.01568 37.3302 3.43593 36.4403 3.80949 35.5035L18.238 0H19.1719L33.7872 35.7377C34.3475 37.0023 34.8145 37.9391 35.2814 38.5012C35.7017 39.0632 36.3554 39.3443 37.2426 39.3443V39.6721H27.9037V39.3443H27.857ZM24.6818 24.0749L17.3508 5.71429L9.87974 24.0281H24.6818V24.0749Z" fill="black"/>
<path d="M55.3599 1.07728C53.3521 1.07728 51.531 1.49883 49.85 2.38876C48.169 3.27869 46.8149 4.54333 45.6475 6.18267C44.4802 7.82201 43.593 9.83607 42.9392 12.1311C42.2855 14.4731 42.0054 17.0492 42.0054 19.9532C42.0054 22.8571 42.3322 25.4333 42.9859 27.7752C43.6397 30.1171 44.5735 32.1311 45.7409 33.7705C46.9083 35.4098 48.3558 36.6745 50.0368 37.6112C51.7178 38.5012 53.5855 38.9696 55.6401 38.9696C57.2277 38.9696 58.8153 38.6885 60.3562 38.1733C61.8971 37.6112 63.2045 36.815 64.3252 35.7377V23.8407C64.3252 22.623 63.9984 21.733 63.3446 21.2646C62.6909 20.7963 61.3835 20.4684 59.3756 20.3279V19.9532H68.8079V35.1756C67.1269 36.5808 65.1657 37.7518 62.9711 38.6417C60.7298 39.5316 58.3483 40 55.7802 40C53.1186 40 50.6905 39.4848 48.4025 38.5012C46.1145 37.5176 44.2 36.1124 42.5657 34.3326C40.8847 32.5995 39.624 30.4918 38.6901 28.0562C37.7562 25.6206 37.3359 22.9508 37.3359 20.0937C37.3359 17.1897 37.8029 14.5199 38.6901 12.0843C39.624 9.64871 40.838 7.49415 42.4256 5.71429C44.0599 3.93443 45.9277 2.52927 48.1223 1.49883C50.3169 0.515222 52.6983 0 55.2665 0C57.4145 0 59.5157 0.327869 61.4769 1.03044C63.438 1.73302 65.2591 2.57611 66.8934 3.6534V7.49415H66.5665C65.3525 5.48009 63.8116 3.88759 61.8504 2.76347C59.8893 1.63934 57.7413 1.07728 55.3599 1.07728Z" fill="black"/>
<path d="M75.2049 3.98128C75.2049 3.2787 75.1582 2.71664 75.1115 2.24826C75.0649 1.77987 74.9715 1.49884 74.7847 1.21781C74.6446 0.983619 74.4111 0.796265 74.1777 0.749427C73.8975 0.65575 73.5706 0.65575 73.1504 0.65575V0.327881H81.6487V0.65575C80.8082 0.65575 80.2946 0.889942 80.0144 1.31149C79.7343 1.73303 79.6409 2.6698 79.6409 4.16863V24.356C79.6409 28.8993 80.6682 32.3185 82.7694 34.7073C84.8706 37.096 87.6723 38.267 91.2678 38.267C93.0888 38.267 94.7698 37.9391 96.3574 37.3302C97.8983 36.6745 99.2525 35.7377 100.373 34.4731C101.494 33.2084 102.381 31.6628 103.035 29.7892C103.688 27.9157 103.969 25.808 103.969 23.3724V3.93444C103.969 2.57612 103.829 1.68619 103.595 1.31149C103.362 0.889942 102.801 0.65575 102.007 0.65575V0.327881H107.331V0.65575C106.49 0.65575 105.976 0.843103 105.696 1.26465C105.416 1.68619 105.323 2.57612 105.323 3.98128V23.4192C105.323 26.1358 104.949 28.4778 104.202 30.5387C103.455 32.5995 102.428 34.3326 101.074 35.7377C99.7661 37.1429 98.1785 38.2202 96.3574 38.9227C94.5364 39.6253 92.5285 40 90.2872 40C87.9992 40 85.9446 39.6253 84.0768 38.8759C82.2091 38.1265 80.6682 37.0492 79.3607 35.5972C78.0533 34.192 77.026 32.459 76.3256 30.445C75.5785 28.4309 75.2516 26.1358 75.2516 23.6066V3.98128H75.2049Z" fill="black"/>
<path d="M129.23 39.6721C127.503 39.6721 126.195 39.3443 125.261 38.7354C124.328 38.1265 123.487 37.1429 122.647 35.8314L108.592 15.0351V36.0187C108.592 37.2365 108.685 38.0796 108.918 38.5949C109.152 39.1101 109.712 39.3443 110.599 39.3443V39.6721H102.101V39.3443C103.035 39.3443 103.595 39.1101 103.829 38.5949C104.062 38.0796 104.156 37.2365 104.156 36.0187V3.98128C104.156 2.76348 104.062 1.92039 103.829 1.40516C103.595 0.889942 103.035 0.65575 102.101 0.65575V0.327881H115.502C117.51 0.327881 119.331 0.515234 120.966 0.93678C122.6 1.35833 123.954 1.87355 125.121 2.62296C126.242 3.37238 127.129 4.21547 127.736 5.24591C128.343 6.27636 128.67 7.40048 128.67 8.66512C128.67 9.83608 128.39 10.9134 127.876 11.8501C127.363 12.7869 126.616 13.6768 125.728 14.3794C124.794 15.082 123.721 15.644 122.46 16.0187C121.199 16.3935 119.798 16.6276 118.304 16.6276C116.856 16.6276 115.362 16.4403 113.775 16.1124C112.234 15.7377 110.88 15.2693 109.712 14.6136L110.179 15.2693C110.88 16.2998 111.58 17.0024 112.234 17.4239C112.887 17.8454 113.588 18.2202 114.242 18.548C114.895 18.8759 115.549 19.2974 116.203 19.7658C116.856 20.2342 117.557 21.0305 118.257 22.1077L127.036 34.9415C127.409 35.5035 127.83 36.0656 128.25 36.5808C128.67 37.1429 129.137 37.6113 129.604 38.0328C130.071 38.4543 130.585 38.7822 131.052 39.0164C131.518 39.2506 131.985 39.3911 132.406 39.3911V39.719H129.23V39.6721ZM108.592 12.6464C109.059 12.9743 109.572 13.3021 110.226 13.5832C110.88 13.8642 111.533 14.1452 112.234 14.3326C112.934 14.5199 113.681 14.7073 114.428 14.8009C115.175 14.8946 115.923 14.9883 116.623 14.9883C117.65 14.9883 118.584 14.8478 119.471 14.6136C120.359 14.3794 121.152 14.0047 121.853 13.4426C122.553 12.9274 123.067 12.2248 123.487 11.4286C123.861 10.5855 124.094 9.60188 124.094 8.43092C124.094 6.089 123.3 4.30915 121.666 3.18502C120.032 2.0609 117.697 1.49884 114.709 1.49884H108.592V12.6464Z" fill="black"/>
<path d="M136.421 3.98128C136.421 2.76348 136.328 1.92039 136.094 1.40516C135.861 0.889942 135.301 0.65575 134.367 0.65575V0.327881H142.865V0.65575C141.978 0.65575 141.418 0.889942 141.184 1.40516C140.951 1.92039 140.857 2.76348 140.857 3.98128V36.0187C140.857 37.2365 140.951 38.0796 141.184 38.5949C141.418 39.1101 141.978 39.3443 142.865 39.3443V39.6721H134.367V39.3443C135.301 39.3443 135.861 39.1101 136.094 38.5949C136.328 38.0796 136.421 37.2365 136.421 36.0187V3.98128Z" fill="black"/>
</svg>
