<svg width="143" height="40" viewBox="0 0 143 40" fill="none" xmlns="http://www.w3.org/2000/svg">
<path d="M27.857 39.3443C28.4174 39.3443 28.8376 39.2506 29.1645 39.0632C29.4446 38.8759 29.6781 38.5948 29.7715 38.267C29.8649 37.9391 29.8649 37.5644 29.7715 37.096C29.6314 36.6745 29.4913 36.2529 29.3045 35.7377L25.1021 25.2927H9.3661L5.16362 35.6909C4.97684 36.1593 4.83676 36.6276 4.69668 37.0492C4.60329 37.5176 4.60329 37.8923 4.64998 38.2201C4.69668 38.548 4.83676 38.829 5.11692 39.0164C5.3504 39.2506 5.72395 39.3443 6.23759 39.3443V39.6721H0.634277V39.3443C1.38139 39.3443 1.98841 38.9227 2.50205 38.1265C3.01568 37.3302 3.43593 36.4403 3.80949 35.5035L18.238 0H19.1719L33.7872 35.7377C34.3475 37.0023 34.8145 37.9391 35.2814 38.5012C35.7017 39.0632 36.3554 39.3443 37.2426 39.3443V39.6721H27.9037V39.3443H27.857ZM24.6818 24.0749L17.3508 5.71429L9.87974 24.0281H24.6818V24.0749Z" fill="black"/>
<path d="M55.3599 1.07728C53.3521 1.07728 51.531 1.49883 49.85 2.38876C48.169 3.27869 46.8149 4.54333 45.6475 6.18267C44.4802 7.82201 43.593 9.83607 42.9392 12.1311C42.2855 14.4731 42.0054 17.0492 42.0054 19.9532C42.0054 22.8571 42.3322 25.4333 42.9859 27.7752C43.6397 30.1171 44.5735 32.1311 45.7409 33.7705C46.9083 35.4098 48.3558 36.6745 50.0368 37.6112C51.7178 38.5012 53.5855 38.9696 55.6401 38.9696C57.2277 38.9696 58.8153 38.6885 60.3562 38.1733C61.8971 37.6112 63.2045 36.815 64.3252 35.7377V23.8408C64.3252 22.623 63.9983 21.733 63.3446 21.2646C62.6909 20.7963 61.3835 20.4684 59.3756 20.3279V19.9532H68.8079V35.1756C67.1269 36.5808 65.1657 37.7518 62.9711 38.6417C60.7298 39.5316 58.3483 40 55.7802 40C53.1186 40 50.6905 39.4848 48.4025 38.5012C46.1145 37.5176 44.2 36.1124 42.5657 34.3326C40.8847 32.5995 39.624 30.4918 38.6901 28.0562C37.7562 25.6206 37.3359 22.9508 37.3359 20.0937C37.3359 17.1897 37.8029 14.5199 38.6901 12.0843C39.624 9.64871 40.838 7.49415 42.4256 5.71429C44.0599 3.93443 45.9277 2.52927 48.1223 1.49883C50.3169 0.515222 52.6983 0 55.2665 0C57.4145 0 59.5157 0.327869 61.4769 1.03044C63.438 1.73302 65.2591 2.57611 66.8934 3.6534V7.49415H66.5665C65.3525 5.48009 63.8116 3.88759 61.8504 2.76347C59.8893 1.63934 57.7413 1.07728 55.3599 1.07728Z" fill="black"/>
<path d="M75.2049 3.98152C75.2049 3.27894 75.1582 2.71688 75.1115 2.2485C75.0649 1.78012 74.9715 1.49909 74.7847 1.21805C74.6446 0.983863 74.4111 0.796509 74.1777 0.749671C73.8975 0.655994 73.5706 0.655994 73.1504 0.655994V0.328125H81.6487V0.655994C80.8082 0.655994 80.2946 0.890186 80.0144 1.31173C79.7343 1.73328 79.6409 2.67005 79.6409 4.16887V24.3562C79.6409 28.8996 80.6682 32.3188 82.7694 34.7075C84.8706 37.0963 87.6723 38.2672 91.2678 38.2672C93.0888 38.2672 94.7698 37.9394 96.3574 37.3305C97.8983 36.6747 99.2525 35.738 100.373 34.4733C101.494 33.2087 102.381 31.663 103.035 29.7895C103.688 27.9159 103.969 25.8082 103.969 23.3726V3.93468C103.969 2.57637 103.829 1.68644 103.595 1.31173C103.362 0.890186 102.801 0.655994 102.007 0.655994V0.328125H107.331V0.655994C106.49 0.655994 105.976 0.843348 105.696 1.26489C105.416 1.68644 105.323 2.57637 105.323 3.98152V23.4195C105.323 26.1361 104.949 28.478 104.202 30.5389C103.455 32.5998 102.428 34.3328 101.074 35.738C99.7661 37.1431 98.1785 38.2204 96.3574 38.923C94.5364 39.6256 92.5285 40.0003 90.2872 40.0003C87.9992 40.0003 85.9446 39.6256 84.0768 38.8761C82.2091 38.1267 80.6682 37.0494 79.3607 35.5974C78.0533 34.1923 77.026 32.4593 76.3256 30.4452C75.5785 28.4312 75.2516 26.1361 75.2516 23.6068V3.98152H75.2049Z" fill="black"/>
<path d="M129.23 39.6724C127.503 39.6724 126.195 39.3445 125.261 38.7356C124.328 38.1267 123.487 37.1431 122.647 35.8316L108.592 15.0354V36.019C108.592 37.2368 108.685 38.0799 108.918 38.5951C109.152 39.1103 109.712 39.3445 110.599 39.3445V39.6724H102.101V39.3445C103.035 39.3445 103.595 39.1103 103.829 38.5951C104.062 38.0799 104.156 37.2368 104.156 36.019V3.98152C104.156 2.76372 104.062 1.92063 103.829 1.40541C103.595 0.890186 103.035 0.655994 102.101 0.655994V0.328125H115.502C117.51 0.328125 119.331 0.515479 120.966 0.937024C122.6 1.35857 123.954 1.87379 125.121 2.62321C126.242 3.37262 127.129 4.21571 127.736 5.24616C128.343 6.2766 128.67 7.40072 128.67 8.66536C128.67 9.83632 128.39 10.9136 127.876 11.8504C127.363 12.7871 126.616 13.6771 125.728 14.3796C124.794 15.0822 123.721 15.6443 122.46 16.019C121.199 16.3937 119.798 16.6279 118.304 16.6279C116.856 16.6279 115.362 16.4405 113.775 16.1127C112.234 15.738 110.88 15.2696 109.712 14.6138L110.179 15.2696C110.88 16.3 111.58 17.0026 112.234 17.4241C112.887 17.8457 113.588 18.2204 114.242 18.5483C114.895 18.8761 115.549 19.2977 116.203 19.7661C116.856 20.2344 117.557 21.0307 118.257 22.108L127.036 34.9417C127.409 35.5038 127.83 36.0658 128.25 36.5811C128.67 37.1431 129.137 37.6115 129.604 38.033C130.071 38.4546 130.585 38.7825 131.052 39.0167C131.518 39.2508 131.985 39.3914 132.406 39.3914V39.7192H129.23V39.6724ZM108.592 12.6466C109.059 12.9745 109.572 13.3024 110.226 13.5834C110.88 13.8644 111.533 14.1455 112.234 14.3328C112.934 14.5202 113.681 14.7075 114.428 14.8012C115.175 14.8949 115.923 14.9885 116.623 14.9885C117.65 14.9885 118.584 14.848 119.471 14.6138C120.359 14.3796 121.152 14.0049 121.853 13.4429C122.553 12.9277 123.067 12.2251 123.487 11.4288C123.861 10.5857 124.094 9.60213 124.094 8.43117C124.094 6.08925 123.3 4.30939 121.666 3.18527C120.032 2.06115 117.697 1.49909 114.709 1.49909H108.592V12.6466V12.6466Z" fill="black"/>
<path d="M136.421 3.98152C136.421 2.76372 136.328 1.92063 136.094 1.40541C135.861 0.890186 135.301 0.655994 134.367 0.655994V0.328125H142.865V0.655994C141.978 0.655994 141.418 0.890186 141.184 1.40541C140.951 1.92063 140.857 2.76372 140.857 3.98152V36.019C140.857 37.2368 140.951 38.0799 141.184 38.5951C141.418 39.1103 141.978 39.3445 142.865 39.3445V39.6724H134.367V39.3445C135.301 39.3445 135.861 39.1103 136.094 38.5951C136.328 38.0799 136.421 37.2368 136.421 36.019V3.98152Z" fill="black"/>
</svg>
