<svg width="143" height="40" viewBox="0 0 143 40" fill="none" xmlns="http://www.w3.org/2000/svg">
<path d="M27.2227 38.9022C27.7831 38.9022 28.2033 38.8096 28.5302 38.6243C28.8104 38.4391 29.0438 38.1612 29.1372 37.837C29.2306 37.5128 29.2306 37.1423 29.1372 36.6792C28.9971 36.2624 28.857 35.8456 28.6703 35.3362L24.4678 25.0086H8.73182L4.52934 35.2898C4.34257 35.753 4.20248 36.2161 4.0624 36.6329C3.96901 37.096 3.96901 37.4665 4.01571 37.7907C4.0624 38.1149 4.20248 38.3928 4.48265 38.578C4.71612 38.8096 5.08967 38.9022 5.60331 38.9022V39.2264H0V38.9022C0.747108 38.9022 1.35413 38.4854 1.86777 37.6981C2.38141 36.9108 2.80165 36.0308 3.17521 35.1046L17.6037 0H18.5376L33.1529 35.3362C33.7132 36.5866 34.1802 37.5128 34.6471 38.0686C35.0674 38.6243 35.7211 38.9022 36.6083 38.9022V39.2264H27.2694V38.9022H27.2227ZM24.0475 23.8044L16.7165 5.65008L9.24546 23.7581H24.0475V23.8044Z" fill="black"/>
<path d="M54.7251 1.06518C52.7173 1.06518 50.8962 1.48199 49.2152 2.36192C47.5342 3.24185 46.1801 4.49228 45.0127 6.1132C43.8454 7.73413 42.9582 9.72555 42.3045 11.9948C41.6508 14.3104 41.3706 16.8576 41.3706 19.729C41.3706 22.6003 41.6975 25.1475 42.3512 27.4631C43.0049 29.7787 43.9388 31.7701 45.1061 33.391C46.2735 35.012 47.721 36.2624 49.402 37.1886C51.083 38.0686 52.9508 38.5317 55.0053 38.5317C56.5929 38.5317 58.1805 38.2538 59.7214 37.7444C61.2623 37.1886 62.5698 36.4013 63.6904 35.3362V23.5729C63.6904 22.3688 63.3636 21.4888 62.7099 21.0257C62.0561 20.5626 60.7487 20.2384 58.7409 20.0995V19.729H68.1731V34.7804C66.4921 36.1698 64.5309 37.3276 62.3363 38.2075C60.095 39.0874 57.7136 39.5506 55.1454 39.5506C52.4838 39.5506 50.0557 39.0411 47.7677 38.0686C45.4797 37.096 43.5652 35.7067 41.9309 33.9468C40.2499 32.2332 38.9892 30.1492 38.0553 27.741C37.1214 25.3327 36.7012 22.6929 36.7012 19.8679C36.7012 16.9966 37.1681 14.3568 38.0553 11.9485C38.9892 9.5403 40.2032 7.40994 41.7908 5.65008C43.4251 3.89022 45.2929 2.50085 47.4875 1.48199C49.6822 0.509433 52.0636 0 54.6318 0C56.7797 0 58.8809 0.324185 60.8421 1.01887C62.8033 1.71355 64.6243 2.54717 66.2586 3.61235V7.40994H65.9318C64.7177 5.41852 63.1768 3.84391 61.2156 2.73242C59.2545 1.62092 57.1066 1.06518 54.7251 1.06518Z" fill="black"/>
<path d="M74.5712 3.93657C74.5712 3.24188 74.5245 2.68614 74.4778 2.22302C74.4311 1.75989 74.3377 1.48202 74.1509 1.20415C74.0108 0.972589 73.7773 0.78734 73.5439 0.741028C73.2637 0.648404 72.9368 0.648404 72.5166 0.648404V0.324219H81.015V0.648404C80.1745 0.648404 79.6608 0.879964 79.3807 1.29677C79.1005 1.71358 79.0071 2.63983 79.0071 4.12181V24.0823C79.0071 28.5746 80.0344 31.9554 82.1356 34.3173C84.2369 36.6792 87.0385 37.8371 90.634 37.8371C92.455 37.8371 94.136 37.5129 95.7236 36.9108C97.2645 36.2624 98.6187 35.3362 99.7393 34.0858C100.86 32.8353 101.747 31.307 102.401 29.4546C103.055 27.6021 103.335 25.518 103.335 23.1098V3.89025C103.335 2.5472 103.195 1.66727 102.961 1.29677C102.728 0.879964 102.167 0.648404 101.374 0.648404V0.324219H106.697V0.648404C105.856 0.648404 105.343 0.833652 105.062 1.25046C104.782 1.66727 104.689 2.5472 104.689 3.93657V23.1561C104.689 25.8422 104.315 28.1578 103.568 30.1955C102.821 32.2333 101.794 33.9468 100.44 35.3362C99.1323 36.7256 97.5447 37.7907 95.7236 38.4854C93.9026 39.1801 91.8947 39.5506 89.6534 39.5506C87.3654 39.5506 85.3108 39.1801 83.4431 38.4391C81.5753 37.6981 80.0344 36.6329 78.7269 35.1973C77.4195 33.8079 76.3922 32.0943 75.6918 30.1029C74.9447 28.1115 74.6178 25.8422 74.6178 23.3414V3.93657H74.5712Z" fill="black"/>
<path d="M128.596 39.2264C126.868 39.2264 125.561 38.9022 124.627 38.3002C123.693 37.6981 122.853 36.7256 122.012 35.4288L107.957 14.8662V35.6141C107.957 36.8182 108.051 37.6518 108.284 38.1612C108.518 38.6707 109.078 38.9022 109.965 38.9022V39.2264H101.467V38.9022C102.401 38.9022 102.961 38.6707 103.194 38.1612C103.428 37.6518 103.521 36.8182 103.521 35.6141V3.93657C103.521 2.73245 103.428 1.89883 103.194 1.3894C102.961 0.879964 102.401 0.648404 101.467 0.648404V0.324219H114.868C116.876 0.324219 118.697 0.509467 120.331 0.926276C121.966 1.34309 123.32 1.85252 124.487 2.59351C125.608 3.33451 126.495 4.16813 127.102 5.18699C127.709 6.20586 128.036 7.31735 128.036 8.56778C128.036 9.72558 127.756 10.7908 127.242 11.717C126.728 12.6432 125.981 13.5232 125.094 14.2179C124.16 14.9125 123.086 15.4683 121.825 15.8388C120.565 16.2093 119.164 16.4408 117.67 16.4408C116.222 16.4408 114.728 16.2556 113.14 15.9314C111.599 15.5609 110.245 15.0978 109.078 14.4494L109.545 15.0978C110.245 16.1167 110.946 16.8113 111.599 17.2281C112.253 17.645 112.954 18.0155 113.607 18.3396C114.261 18.6638 114.915 19.0806 115.568 19.5438C116.222 20.0069 116.923 20.7942 117.623 21.8594L126.402 34.5489C126.775 35.1046 127.195 35.6604 127.616 36.1698C128.036 36.7256 128.503 37.1887 128.97 37.6055C129.437 38.0223 129.95 38.3465 130.417 38.578C130.884 38.8096 131.351 38.9485 131.771 38.9485V39.2727H128.596V39.2264ZM107.957 12.5043C108.424 12.8285 108.938 13.1527 109.592 13.4306C110.245 13.7084 110.899 13.9863 111.599 14.1715C112.3 14.3568 113.047 14.542 113.794 14.6347C114.541 14.7273 115.288 14.8199 115.989 14.8199C117.016 14.8199 117.95 14.681 118.837 14.4494C119.724 14.2179 120.518 13.8474 121.218 13.2916C121.919 12.7822 122.433 12.0875 122.853 11.3002C123.226 10.4666 123.46 9.49402 123.46 8.33622C123.46 6.02061 122.666 4.26075 121.032 3.14926C119.397 2.03777 117.063 1.48202 114.074 1.48202H107.957V12.5043Z" fill="black"/>
<path d="M135.787 3.93657C135.787 2.73245 135.694 1.89883 135.46 1.3894C135.227 0.879964 134.666 0.648404 133.732 0.648404V0.324219H142.231V0.648404C141.344 0.648404 140.783 0.879964 140.55 1.3894C140.316 1.89883 140.223 2.73245 140.223 3.93657V35.6141C140.223 36.8182 140.316 37.6518 140.55 38.1612C140.783 38.6707 141.344 38.9022 142.231 38.9022V39.2264H133.732V38.9022C134.666 38.9022 135.227 38.6707 135.46 38.1612C135.694 37.6518 135.787 36.8182 135.787 35.6141V3.93657Z" fill="black"/>
</svg>
