<svg width="24" height="24" viewBox="0 0 24 24" fill="none" xmlns="http://www.w3.org/2000/svg">
<path d="M12.5625 0.304688C7.75313 0.304688 3 3.51094 3 8.7C3 12 4.85625 13.875 5.98125 13.875C6.44531 13.875 6.7125 12.5813 6.7125 12.2156C6.7125 11.7797 5.60156 10.8516 5.60156 9.0375C5.60156 5.26875 8.47031 2.59688 12.1828 2.59688C15.375 2.59688 17.7375 4.41094 17.7375 7.74375C17.7375 10.2328 16.7391 14.9016 13.5047 14.9016C12.3375 14.9016 11.3391 14.0578 11.3391 12.8484C11.3391 11.0766 12.5766 9.36094 12.5766 7.53281C12.5766 4.42969 8.175 4.99219 8.175 8.74219C8.175 9.52969 8.27344 10.4016 8.625 11.1188C7.97813 13.9031 6.65625 18.0516 6.65625 20.9203C6.65625 21.8063 6.78281 22.6781 6.86719 23.5641C7.02656 23.7422 6.94688 23.7234 7.19063 23.6344C9.55313 20.4 9.46875 19.7672 10.5375 15.5344C11.1141 16.6313 12.6047 17.2219 13.7859 17.2219C18.7641 17.2219 21 12.3703 21 7.99688C21 3.34219 16.9781 0.304688 12.5625 0.304688Z" fill="black"/>
</svg>
