<svg width="25" height="25" viewBox="0 0 25 25" fill="none" xmlns="http://www.w3.org/2000/svg">
<path d="M14.5833 15.6249H21.875M3.125 15.6249H5.20833M5.20833 15.6249C5.20833 17.0632 6.37426 18.2291 7.8125 18.2291C9.25074 18.2291 10.4167 17.0632 10.4167 15.6249C10.4167 14.1867 9.25074 13.0208 7.8125 13.0208C6.37426 13.0208 5.20833 14.1867 5.20833 15.6249ZM20.8333 9.37492H21.875M3.125 9.37492H10.4167M17.1875 11.9791C15.7493 11.9791 14.5833 10.8132 14.5833 9.37492C14.5833 7.93668 15.7493 6.77075 17.1875 6.77075C18.6257 6.77075 19.7917 7.93668 19.7917 9.37492C19.7917 10.8132 18.6257 11.9791 17.1875 11.9791Z" stroke="black" stroke-width="2" stroke-linecap="round" stroke-linejoin="round"/>
</svg>
